<?xml version="1.0" standalone="no"?>
<!DOCTYPE svg PUBLIC "-//W3C//DTD SVG 20010904//EN"
 "http://www.w3.org/TR/2001/REC-SVG-20010904/DTD/svg10.dtd">
<svg version="1.0" xmlns="http://www.w3.org/2000/svg"
 width="400.000000pt" height="400.000000pt" viewBox="0 0 400.000000 400.000000"
 preserveAspectRatio="xMidYMid meet">
<metadata>
Created by potrace 1.11, written by Peter Selinger 2001-2013
</metadata>
<g transform="translate(0.000000,400.000000) scale(0.100000,-0.100000)"
fill="#000000" stroke="none">
<path d="M3540 3922 c-16 -7 -75 -68 -419 -435 -112 -119 -207 -217 -211 -217
-4 0 -25 7 -46 16 -21 9 -76 19 -123 22 l-85 7 -8 44 c-21 125 -172 229 -344
239 -97 5 -147 -13 -220 -80 -51 -47 -71 -85 -79 -149 -3 -23 -8 -45 -10 -49
-2 -4 -26 -10 -52 -13 -26 -3 -55 -8 -63 -12 -11 -4 -23 7 -40 37 -82 149
-182 274 -267 334 -276 198 -657 228 -958 76 -251 -126 -401 -293 -484 -539
-58 -171 -91 -364 -91 -522 0 -165 47 -461 116 -736 9 -33 22 -85 29 -116 8
-31 21 -74 28 -95 8 -22 22 -64 30 -94 27 -94 88 -291 123 -393 19 -55 34
-103 34 -108 0 -5 -18 -9 -40 -9 -50 0 -104 -46 -124 -104 -31 -91 19 -133
223 -186 46 -12 95 -52 89 -72 -3 -7 -34 -30 -71 -53 -87 -53 -121 -87 -147
-148 -46 -105 21 -217 130 -217 47 0 82 23 129 84 64 83 67 84 89 39 16 -31
19 -52 15 -113 -5 -72 -4 -77 26 -118 20 -26 48 -50 74 -61 37 -16 46 -27 82
-100 l39 -81 177 0 177 0 6 88 c4 48 11 119 17 157 17 121 158 510 190 526 8
4 41 15 74 24 61 17 151 63 142 72 -3 2 -146 -21 -317 -52 l-312 -57 -14 21
c-29 41 -41 26 -46 -59 -6 -95 -21 -123 -91 -160 -44 -24 -47 -27 -47 -67 0
-23 11 -64 25 -95 14 -29 25 -70 25 -90 0 -31 -5 -40 -30 -53 -41 -21 -64 -19
-99 11 -26 22 -31 33 -31 70 0 25 5 65 11 89 23 92 -16 165 -88 165 -34 0 -46
-8 -108 -70 -77 -77 -102 -86 -149 -49 -62 49 -8 142 119 207 142 72 103 173
-89 229 -66 19 -132 58 -138 81 -8 28 9 61 36 73 34 16 65 2 193 -84 173 -115
243 -131 300 -69 30 33 27 72 -16 171 -45 103 -47 126 -16 157 20 20 32 24 53
19 66 -16 91 -74 92 -210 0 -73 14 -155 26 -155 2 0 96 20 209 46 l204 45 83
-25 c101 -30 235 -56 292 -56 24 0 45 -3 49 -6 3 -4 -7 -30 -22 -58 -99 -180
-215 -557 -237 -768 l-7 -68 34 0 35 0 12 128 c7 70 23 172 36 227 50 205 144
446 201 513 24 29 25 29 167 35 87 4 188 16 257 30 l114 23 13 -33 c21 -48 41
-155 49 -253 11 -140 -29 -412 -85 -578 -17 -48 -30 -88 -30 -90 0 -2 15 -2
32 0 32 3 33 4 61 103 57 206 72 314 71 510 -2 146 -6 194 -22 255 -11 41 -22
81 -24 89 -2 9 12 20 37 29 22 8 73 27 114 43 l74 29 61 -53 c167 -146 438
-367 451 -367 14 0 64 72 123 177 18 33 46 67 62 76 83 49 160 -24 103 -97
-11 -14 -43 -43 -70 -65 -99 -78 -119 -139 -62 -192 37 -34 79 -43 162 -35
161 15 284 18 305 7 24 -13 30 -62 12 -91 -10 -16 -22 -16 -237 -8 -80 3 -95
0 -120 -18 -43 -32 -41 -68 8 -144 77 -119 89 -181 44 -225 l-24 -25 59 0 c56
0 60 2 66 26 15 61 -14 148 -85 254 -17 25 -31 50 -31 56 0 18 82 26 131 13
63 -16 184 -25 219 -16 60 15 81 123 38 187 -49 72 -167 98 -275 61 -61 -20
-172 -28 -207 -15 -9 4 -21 14 -26 24 -13 24 22 66 90 110 98 63 129 166 70
234 -37 41 -87 60 -144 54 -69 -8 -94 -32 -148 -144 -27 -57 -55 -108 -63
-114 -10 -9 -51 20 -187 129 -247 199 -267 215 -267 221 -1 3 44 26 98 53 94
45 188 103 276 170 36 27 68 55 155 139 171 163 277 357 315 571 48 268 -31
597 -198 835 -52 73 -172 197 -246 252 l-33 25 119 115 c66 63 168 160 228
215 200 184 264 249 271 278 17 70 -143 216 -206 189z m117 -94 c23 -24 45
-55 49 -70 6 -25 4 -28 -21 -28 -45 0 -88 27 -117 74 -27 42 -34 67 -22 78 13
14 72 -15 111 -54z m-319 -187 c-3 -17 -235 -270 -497 -541 -82 -85 -90 -90
-67 -50 24 44 543 610 559 610 5 0 7 -9 5 -19z m0 -196 c-281 -272 -521 -500
-527 -503 -4 -1 -13 9 -21 22 -17 32 -31 15 295 360 l270 285 38 -37 38 -37
-93 -90z m-883 81 c56 -26 89 -58 134 -130 44 -70 42 -74 -30 -65 -49 6 -67
13 -93 38 -56 54 -146 77 -199 50 -12 -6 -35 -26 -52 -44 -27 -29 -38 -33 -97
-39 l-68 -7 0 28 c0 92 151 192 290 192 48 1 78 -5 115 -23z m940 -94 c-374
-361 -506 -483 -519 -480 -20 4 569 568 592 568 10 0 -18 -34 -73 -88z m-971
-72 c16 -6 27 -12 25 -13 -2 -1 -49 0 -104 3 -91 5 -97 6 -70 17 33 14 104 11
149 -7z m131 -78 l40 -7 -47 -28 c-201 -117 -234 -420 -67 -602 141 -153 371
-191 544 -90 55 33 91 74 121 140 44 97 40 185 -12 288 -13 27 -24 52 -24 55
0 16 167 -159 210 -221 41 -57 48 -73 43 -101 -3 -20 1 -45 11 -64 20 -38 33
-47 50 -33 14 12 21 0 61 -105 64 -169 76 -394 31 -567 -31 -121 -60 -186
-131 -293 -132 -199 -381 -409 -620 -525 -225 -108 -560 -181 -837 -180 -248
0 -375 24 -529 101 -350 173 -561 463 -610 835 -17 134 -1 316 40 440 l18 54
-58 20 c-65 22 -126 61 -183 117 -79 79 -96 169 -49 265 33 68 160 195 228
229 58 28 147 37 197 21 45 -15 110 -70 149 -127 l30 -44 37 35 c43 42 130
106 217 160 l60 37 -63 -57 c-72 -66 -113 -122 -142 -195 -100 -253 27 -524
282 -601 219 -67 460 71 538 307 32 94 25 240 -15 337 -46 112 -139 201 -255
242 -45 16 -172 21 -228 9 -54 -11 7 17 132 61 121 43 264 78 386 95 72 10
382 5 445 -8z m288 -33 c20 -5 37 -13 37 -17 0 -4 -20 -28 -45 -52 -43 -42
-45 -43 -46 -20 0 17 -6 9 -18 -27 -31 -90 -44 -103 -104 -104 l-52 0 40 -18
c56 -25 100 -79 115 -140 14 -58 28 -65 37 -20 9 45 42 62 123 63 73 1 92 12
40 23 -52 10 -30 39 35 45 36 4 38 5 17 14 l-23 10 25 23 25 24 12 -29 c6 -16
9 -60 7 -100 -8 -126 -71 -224 -181 -281 -45 -24 -64 -28 -137 -28 -71 0 -94
4 -140 26 -161 77 -231 264 -157 424 43 92 116 158 207 186 37 11 140 10 183
-2z m-997 -188 c77 -36 138 -96 173 -170 23 -49 26 -69 26 -156 0 -90 -3 -106
-29 -159 -82 -167 -266 -244 -442 -186 -91 31 -179 115 -214 205 -49 128 -23
275 67 375 114 127 270 161 419 91z m1568 -377 c3 -9 6 -23 6 -31 0 -14 -3
-14 -20 2 -11 10 -20 24 -20 32 0 18 27 16 34 -3z"/>
<path d="M3557 3851 c3 -11 12 -26 21 -33 14 -12 14 -10 2 12 -7 14 -12 27
-11 30 1 2 -2 6 -7 8 -6 2 -8 -6 -5 -17z"/>
<path d="M3595 3850 c-3 -5 -1 -18 5 -29 13 -26 13 -34 -2 -25 -7 4 -10 3 -6
-1 11 -12 57 -15 63 -4 3 5 -1 6 -11 2 -13 -5 -15 -2 -10 13 3 10 1 26 -5 34
-8 12 -9 10 -4 -7 3 -13 2 -23 -3 -23 -12 0 -24 29 -16 41 3 5 3 9 0 9 -3 0
-8 -4 -11 -10z"/>
<path d="M3657 3769 c-9 -5 -23 -7 -30 -3 -9 5 -9 4 0 -6 16 -17 68 -23 54 -6
-6 7 -8 16 -4 19 9 10 1 8 -20 -4z"/>
<path d="M851 2873 c-63 -22 -127 -88 -136 -139 -10 -63 10 -119 63 -177 42
-45 125 -107 143 -107 4 0 31 44 60 98 28 53 70 130 92 170 37 70 38 74 21 93
-26 29 -133 79 -168 78 -17 0 -51 -8 -75 -16z m115 -38 c56 -23 96 -55 85 -68
-5 -7 -25 -41 -44 -77 -19 -36 -49 -91 -67 -122 l-31 -58 -47 24 c-59 30 -84
71 -84 138 1 64 42 135 92 160 43 22 51 22 96 3z"/>
<path d="M3255 2671 c-3 -10 2 -38 11 -60 13 -33 21 -41 38 -39 29 4 32 44 6
86 -22 36 -46 42 -55 13z m65 -58 c0 -7 -4 -13 -9 -13 -18 0 -40 30 -34 46 5
13 8 13 24 -2 11 -9 19 -23 19 -31z"/>
<path d="M2452 2526 c-30 -26 -32 -27 -74 -12 -54 18 -90 11 -128 -24 -61 -57
-24 -130 99 -199 58 -33 61 -37 61 -73 0 -45 3 -45 -120 -16 -139 32 -394 31
-575 -1 -152 -27 -261 -60 -327 -98 -70 -42 -194 -158 -233 -219 -98 -152
-129 -248 -123 -378 3 -80 8 -99 37 -154 85 -158 281 -281 528 -331 115 -24
338 -29 483 -11 199 25 472 94 670 171 159 61 383 211 496 331 133 142 240
356 264 531 18 123 -7 276 -57 349 -19 28 -22 41 -15 55 13 23 -19 103 -41
103 -22 0 -37 -23 -31 -47 6 -22 6 -22 -53 2 -48 20 -76 25 -159 25 -132 0
-169 -13 -261 -98 -142 -129 -198 -174 -255 -203 -59 -30 -172 -62 -182 -51
-3 3 -6 19 -6 37 0 24 12 42 56 85 85 83 114 127 114 171 0 46 -28 69 -93 76
-36 4 -48 1 -75 -21z m968 -26 c6 -11 8 -25 4 -31 -9 -15 -44 19 -37 37 7 20
20 17 33 -6z m-847 -11 c5 -9 7 -28 3 -43 -9 -36 -119 -146 -145 -146 -29 0
-158 84 -165 108 -4 11 -2 31 3 46 9 21 17 26 45 26 18 0 50 -7 71 -16 35 -14
39 -14 59 4 49 44 108 54 129 21z m118 -291 c6 -26 45 -435 42 -441 -14 -23
-106 -57 -157 -57 -54 0 -55 0 -60 33 -3 17 -7 114 -9 214 l-4 182 61 21 c33
11 72 27 86 35 23 13 39 18 41 13z m-368 -58 l38 -11 -3 -224 c-2 -123 -7
-227 -11 -232 -18 -17 -141 -7 -194 17 -63 27 -61 7 -33 275 11 104 20 192 20
194 0 7 145 -8 183 -19z"/>
<path d="M873 2302 c-18 -11 -34 -62 -28 -83 9 -28 35 -38 80 -30 l40 6 0 55
0 55 -40 3 c-22 1 -45 -1 -52 -6z m75 -60 c4 -30 -23 -39 -48 -17 -31 28 -25
47 13 43 24 -2 33 -8 35 -26z"/>
<path d="M1101 2256 c-7 -8 -16 -28 -20 -44 -13 -44 9 -72 58 -72 48 0 61 14
61 67 0 32 -5 45 -19 53 -28 14 -66 12 -80 -4z m74 -46 c8 -24 -10 -51 -28
-44 -18 6 -39 43 -32 54 11 19 53 11 60 -10z"/>
<path d="M953 2109 c-29 -11 -49 -63 -35 -94 10 -21 19 -25 54 -25 61 0 70 9
66 66 -3 45 -5 49 -34 55 -17 3 -40 2 -51 -2z m57 -50 c13 -24 7 -49 -13 -49
-21 0 -50 37 -44 55 9 22 44 19 57 -6z"/>
<path d="M1897 2858 c-9 -7 -21 -26 -26 -41 -10 -26 -8 -29 25 -49 l35 -21
-26 -27 -25 -27 24 -26 c53 -57 110 -18 109 72 -1 94 -64 158 -116 119z"/>
<path d="M2574 898 c16 -89 28 -327 22 -438 -7 -143 -35 -314 -72 -443 -5 -16
-1 -18 27 -15 32 3 33 5 50 73 34 141 42 246 36 477 -3 123 -9 233 -12 246 -5
13 -3 22 3 22 14 0 273 -197 347 -264 l60 -54 -14 -33 c-31 -79 -28 -106 25
-174 41 -54 40 -55 -44 -118 -63 -46 -87 -91 -74 -140 7 -29 12 -32 52 -35
l43 -3 -17 26 c-26 40 -14 66 58 129 35 31 69 69 75 85 11 25 8 33 -24 82 -42
62 -42 89 0 185 14 31 25 59 25 62 0 2 -16 2 -36 -1 -35 -6 -46 1 -238 149
-110 85 -218 168 -238 184 -48 39 -62 39 -54 -2z"/>
<path d="M915 753 c-22 -8 -64 -17 -93 -20 -60 -7 -63 -19 -10 -46 29 -14 41
-15 64 -7 32 12 71 45 85 73 11 20 8 20 -46 0z"/>
<path d="M3170 496 c0 -83 79 -148 141 -116 18 10 15 14 -33 46 -29 19 -65 49
-80 66 l-28 32 0 -28z"/>
<path d="M3233 208 c-20 -21 -38 -59 -52 -105 -12 -40 -26 -75 -31 -78 -22
-13 -8 -25 30 -25 45 0 51 7 69 93 15 67 34 92 61 77 20 -11 35 -51 45 -123
l6 -47 62 0 c57 0 60 1 37 13 -19 10 -32 33 -55 103 -37 113 -46 124 -99 124
-34 0 -48 -6 -73 -32z"/>
</g>
</svg>
